<svg width="546" height="338" viewBox="0 0 546 338" fill="none" xmlns="http://www.w3.org/2000/svg">
<path d="M0 41.0925C0 18.3977 18.4052 0 41.1092 0H504.891C527.595 0 546 18.3977 546 41.0925V296.908C546 319.602 527.595 338 504.891 338H41.1092C18.4052 338 0 319.602 0 296.908V41.0925Z" fill="#860A15"/>
<path d="M470.151 289.053C470.151 287.135 471.706 285.58 473.625 285.58C475.543 285.58 477.099 287.135 477.099 289.053C477.099 290.97 475.543 292.525 473.625 292.525C471.706 292.525 470.151 290.97 470.151 289.053Z" fill="white"/>
<path d="M85.5581 64.7883H110.774V76.2665H85.5581V64.7883ZM86.6443 86.1935H115.041V98.0594H71.4374V43.771H114.032V55.6369H86.6443V86.1935Z" fill="white"/>
<path d="M134.509 98.7574C130.94 98.7574 127.449 98.3437 124.035 97.5165C120.673 96.6892 117.957 95.6552 115.888 94.4143L120.311 84.3322C122.276 85.5213 124.578 86.4778 127.216 87.2017C129.854 87.8738 132.44 88.2099 134.975 88.2099C137.457 88.2099 139.164 87.9514 140.095 87.4344C141.078 86.9173 141.569 86.2193 141.569 85.3404C141.569 84.5131 141.104 83.9185 140.173 83.5566C139.294 83.143 138.104 82.8328 136.604 82.6259C135.156 82.4191 133.552 82.1865 131.794 81.928C130.035 81.6694 128.25 81.3334 126.44 80.9197C124.681 80.4544 123.052 79.7823 121.552 78.9033C120.104 77.9727 118.94 76.7318 118.061 75.1807C117.181 73.6296 116.742 71.6649 116.742 69.2865C116.742 66.598 117.518 64.2196 119.069 62.1515C120.673 60.0317 123 58.3772 126.052 57.188C129.104 55.9471 132.828 55.3267 137.225 55.3267C140.173 55.3267 143.147 55.6369 146.147 56.2573C149.199 56.8261 151.759 57.705 153.828 58.8942L149.406 68.8988C147.337 67.7096 145.268 66.9082 143.199 66.4946C141.13 66.0292 139.164 65.7966 137.302 65.7966C134.819 65.7966 133.061 66.0809 132.026 66.6497C131.044 67.2184 130.552 67.9164 130.552 68.7436C130.552 69.5709 130.992 70.2172 131.871 70.6825C132.75 71.0961 133.914 71.4322 135.363 71.6907C136.863 71.8975 138.492 72.1302 140.251 72.3887C142.009 72.5955 143.768 72.9316 145.526 73.3969C147.337 73.8623 148.966 74.5603 150.414 75.4909C151.914 76.3699 153.104 77.5849 153.983 79.136C154.863 80.6354 155.302 82.5743 155.302 84.9526C155.302 87.5378 154.501 89.8644 152.897 91.9325C151.345 94.0007 149.018 95.6552 145.914 96.896C142.863 98.1369 139.061 98.7574 134.509 98.7574Z" fill="white"/>
<path d="M179.655 98.7574C175 98.7574 170.836 97.8267 167.163 95.9654C163.543 94.1041 160.698 91.5448 158.629 88.2875C156.56 84.9785 155.525 81.2041 155.525 76.9645C155.525 72.7248 156.56 68.9763 158.629 65.719C160.698 62.4617 163.543 59.9282 167.163 58.1186C170.836 56.2573 175 55.3267 179.655 55.3267C184.413 55.3267 188.525 56.3349 191.991 58.3513C195.456 60.3677 197.913 63.2114 199.362 66.8823L187.956 72.6989C186.974 70.7342 185.758 69.3124 184.31 68.4334C182.862 67.5028 181.284 67.0374 179.577 67.0374C177.87 67.0374 176.318 67.4252 174.922 68.2008C173.525 68.9763 172.413 70.1138 171.586 71.6132C170.81 73.0609 170.422 74.8446 170.422 76.9645C170.422 79.136 170.81 80.9715 171.586 82.4708C172.413 83.9702 173.525 85.1077 174.922 85.8833C176.318 86.6588 177.87 87.0466 179.577 87.0466C181.284 87.0466 182.862 86.6071 184.31 85.7281C185.758 84.7975 186.974 83.3498 187.956 81.3851L199.362 87.2017C197.913 90.8726 195.456 93.7163 191.991 95.7327C188.525 97.7491 184.413 98.7574 179.655 98.7574Z" fill="white"/>
<path d="M219.11 98.7574C215.697 98.7574 212.619 98.0852 209.878 96.7409C207.188 95.3966 205.067 93.3027 203.516 90.459C202.016 87.5636 201.266 83.9185 201.266 79.5238V56.0247H216.007V77.1196C216.007 80.3769 216.602 82.7035 217.791 84.0995C219.033 85.4955 220.766 86.1935 222.99 86.1935C224.438 86.1935 225.757 85.8574 226.947 85.1853C228.136 84.5131 229.093 83.4532 229.817 82.0055C230.541 80.5061 230.904 78.5931 230.904 76.2665V56.0247H245.645V98.0594H231.602V86.1935L234.317 89.5283C232.869 92.6305 230.774 94.9572 228.033 96.5083C225.291 98.0077 222.317 98.7574 219.11 98.7574Z" fill="white"/>
<path d="M273.683 98.7574C268.718 98.7574 264.373 97.8267 260.649 95.9654C256.976 94.0524 254.106 91.4672 252.037 88.2099C250.02 84.9009 249.011 81.1524 249.011 76.9645C249.011 72.7765 249.994 69.0539 251.959 65.7966C253.976 62.4876 256.744 59.9282 260.261 58.1186C263.778 56.2573 267.735 55.3267 272.132 55.3267C276.27 55.3267 280.045 56.1798 283.459 57.886C286.873 59.5405 289.589 61.9964 291.606 65.2537C293.623 68.511 294.632 72.4663 294.632 77.1196C294.632 77.6366 294.606 78.2312 294.554 78.9033C294.502 79.5755 294.451 80.1959 294.399 80.7646H261.114V73.0092H286.563L280.977 75.1807C281.028 73.2677 280.666 71.6132 279.89 70.2172C279.166 68.8212 278.132 67.7354 276.787 66.9599C275.494 66.1843 273.968 65.7966 272.209 65.7966C270.451 65.7966 268.899 66.1843 267.554 66.9599C266.261 67.7354 265.252 68.8471 264.528 70.2947C263.804 71.6907 263.442 73.3452 263.442 75.2583V77.5073C263.442 79.5755 263.856 81.3592 264.683 82.8586C265.563 84.358 266.804 85.5213 268.408 86.3486C270.011 87.1241 271.925 87.5119 274.149 87.5119C276.218 87.5119 277.977 87.2275 279.425 86.6588C280.925 86.0384 282.399 85.1077 283.847 83.8668L291.606 91.9325C289.589 94.1558 287.106 95.862 284.158 97.0511C281.209 98.1886 277.718 98.7574 273.683 98.7574Z" fill="white"/>
<path d="M297.937 98.0594V40.5137H312.678V98.0594H297.937Z" fill="white"/>
<path d="M344.448 98.0594V90.2263L343.44 88.2875V73.8623C343.44 71.5356 342.716 69.7519 341.267 68.511C339.871 67.2184 337.621 66.5721 334.517 66.5721C332.5 66.5721 330.457 66.9082 328.388 67.5803C326.319 68.2008 324.56 69.0797 323.112 70.2172L318.146 60.2126C320.526 58.6615 323.371 57.4723 326.681 56.6451C330.043 55.7661 333.379 55.3267 336.69 55.3267C343.517 55.3267 348.793 56.9036 352.517 60.0575C356.293 63.1597 358.181 68.0456 358.181 74.7154V98.0594H344.448ZM332.034 98.7574C328.672 98.7574 325.828 98.1886 323.5 97.0511C321.172 95.9137 319.388 94.3626 318.146 92.3979C316.957 90.4331 316.362 88.2358 316.362 85.8057C316.362 83.2205 317.009 80.9973 318.302 79.136C319.646 77.223 321.69 75.7753 324.431 74.7929C327.172 73.7589 330.715 73.2418 335.06 73.2418H344.991V80.9197H337.078C334.698 80.9197 333.017 81.3075 332.034 82.0831C331.103 82.8586 330.638 83.8927 330.638 85.1853C330.638 86.4778 331.129 87.5119 332.112 88.2875C333.095 89.063 334.44 89.4508 336.147 89.4508C337.75 89.4508 339.198 89.063 340.491 88.2875C341.836 87.4602 342.819 86.2193 343.44 84.5648L345.457 89.9937C344.681 92.889 343.155 95.0864 340.879 96.5858C338.655 98.0335 335.707 98.7574 332.034 98.7574Z" fill="white"/>
<path d="M401.392 98.7574C397.565 98.7574 394.073 97.8784 390.918 96.1205C387.815 94.3109 385.332 91.8033 383.47 88.5977C381.608 85.3404 380.677 81.4626 380.677 76.9645C380.677 72.518 381.608 68.6919 383.47 65.4863C385.332 62.229 387.815 59.7214 390.918 57.9635C394.073 56.2056 397.565 55.3267 401.392 55.3267C405.013 55.3267 408.065 56.1022 410.548 57.6533C413.082 59.2044 414.996 61.5828 416.289 64.7883C417.582 67.9939 418.229 72.0527 418.229 76.9645C418.229 81.9797 417.608 86.0901 416.367 89.2957C415.125 92.5013 413.263 94.8796 410.78 96.4307C408.298 97.9818 405.168 98.7574 401.392 98.7574ZM404.496 87.0466C406.151 87.0466 407.625 86.6588 408.918 85.8833C410.263 85.1077 411.324 83.9702 412.099 82.4708C412.875 80.9197 413.263 79.0843 413.263 76.9645C413.263 74.8446 412.875 73.0609 412.099 71.6132C411.324 70.1138 410.263 68.9763 408.918 68.2008C407.625 67.4252 406.151 67.0374 404.496 67.0374C402.789 67.0374 401.263 67.4252 399.918 68.2008C398.625 68.9763 397.591 70.1138 396.815 71.6132C396.039 73.0609 395.651 74.8446 395.651 76.9645C395.651 79.0843 396.039 80.9197 396.815 82.4708C397.591 83.9702 398.625 85.1077 399.918 85.8833C401.263 86.6588 402.789 87.0466 404.496 87.0466ZM413.729 98.0594V90.8468L413.806 76.9645L413.03 63.0821V40.5137H427.772V98.0594H413.729Z" fill="white"/>
<path d="M455.799 98.7574C450.834 98.7574 446.489 97.8267 442.765 95.9654C439.092 94.0524 436.222 91.4672 434.153 88.2099C432.135 84.9009 431.127 81.1524 431.127 76.9645C431.127 72.7765 432.11 69.0539 434.075 65.7966C436.092 62.4876 438.86 59.9282 442.377 58.1186C445.894 56.2573 449.851 55.3267 454.248 55.3267C458.386 55.3267 462.161 56.1798 465.575 57.886C468.989 59.5405 471.705 61.9964 473.722 65.2537C475.739 68.511 476.748 72.4663 476.748 77.1196C476.748 77.6366 476.722 78.2312 476.67 78.9033C476.618 79.5755 476.567 80.1959 476.515 80.7646H443.23V73.0092H468.679L463.092 75.1807C463.144 73.2677 462.782 71.6132 462.006 70.2172C461.282 68.8212 460.248 67.7354 458.903 66.9599C457.61 66.1843 456.084 65.7966 454.325 65.7966C452.567 65.7966 451.015 66.1843 449.67 66.9599C448.377 67.7354 447.368 68.8471 446.644 70.2947C445.92 71.6907 445.558 73.3452 445.558 75.2583V77.5073C445.558 79.5755 445.972 81.3592 446.799 82.8586C447.679 84.358 448.92 85.5213 450.523 86.3486C452.127 87.1241 454.041 87.5119 456.265 87.5119C458.334 87.5119 460.092 87.2275 461.541 86.6588C463.041 86.0384 464.515 85.1077 465.963 83.8668L473.722 91.9325C471.705 94.1558 469.222 95.862 466.273 97.0511C463.325 98.1886 459.834 98.7574 455.799 98.7574Z" fill="white"/>
<path d="M94.2779 287.472H101.617V290.813H94.2779V287.472ZM94.5941 293.702H102.859V297.155H90.1682V281.355H102.565V284.808H94.5941V293.702Z" fill="white"/>
<path d="M110.782 297.471C109.487 297.471 108.238 297.313 107.033 296.997C105.844 296.666 104.873 296.245 104.12 295.733L105.588 292.438C106.296 292.889 107.109 293.265 108.027 293.566C108.96 293.852 109.886 293.995 110.804 293.995C111.422 293.995 111.918 293.943 112.295 293.837C112.671 293.717 112.942 293.566 113.108 293.386C113.288 293.19 113.379 292.964 113.379 292.709C113.379 292.347 113.213 292.062 112.882 291.851C112.551 291.64 112.122 291.467 111.595 291.332C111.068 291.196 110.481 291.061 109.833 290.925C109.201 290.79 108.561 290.617 107.914 290.406C107.282 290.196 106.702 289.925 106.175 289.594C105.648 289.248 105.219 288.804 104.888 288.262C104.557 287.705 104.391 287.005 104.391 286.163C104.391 285.215 104.647 284.357 105.159 283.59C105.686 282.822 106.469 282.205 107.508 281.739C108.546 281.272 109.841 281.039 111.392 281.039C112.43 281.039 113.446 281.159 114.44 281.4C115.449 281.626 116.344 281.964 117.127 282.416L115.75 285.734C114.997 285.328 114.252 285.027 113.514 284.831C112.777 284.62 112.062 284.515 111.369 284.515C110.752 284.515 110.255 284.583 109.879 284.718C109.502 284.838 109.231 285.004 109.066 285.215C108.9 285.425 108.817 285.666 108.817 285.937C108.817 286.283 108.975 286.561 109.292 286.772C109.623 286.968 110.052 287.133 110.579 287.269C111.121 287.389 111.708 287.517 112.34 287.652C112.987 287.788 113.627 287.961 114.259 288.172C114.907 288.367 115.494 288.638 116.021 288.984C116.548 289.315 116.969 289.759 117.285 290.316C117.616 290.858 117.782 291.542 117.782 292.37C117.782 293.288 117.519 294.138 116.992 294.921C116.48 295.688 115.705 296.305 114.666 296.772C113.642 297.238 112.348 297.471 110.782 297.471Z" fill="white"/>
<path d="M127.615 297.471C126.366 297.471 125.207 297.276 124.138 296.884C123.084 296.478 122.166 295.906 121.383 295.169C120.615 294.432 120.013 293.566 119.576 292.573C119.14 291.565 118.922 290.459 118.922 289.255C118.922 288.051 119.14 286.953 119.576 285.96C120.013 284.951 120.615 284.079 121.383 283.341C122.166 282.604 123.084 282.04 124.138 281.648C125.207 281.242 126.366 281.039 127.615 281.039C129.075 281.039 130.378 281.295 131.522 281.806C132.681 282.318 133.644 283.055 134.412 284.018L131.567 286.592C131.055 285.99 130.491 285.531 129.873 285.215C129.271 284.899 128.594 284.741 127.841 284.741C127.194 284.741 126.599 284.846 126.057 285.057C125.515 285.267 125.049 285.576 124.657 285.982C124.281 286.373 123.98 286.847 123.754 287.404C123.543 287.961 123.438 288.578 123.438 289.255C123.438 289.932 123.543 290.549 123.754 291.106C123.98 291.663 124.281 292.144 124.657 292.551C125.049 292.942 125.515 293.243 126.057 293.453C126.599 293.664 127.194 293.769 127.841 293.769C128.594 293.769 129.271 293.611 129.873 293.295C130.491 292.979 131.055 292.52 131.567 291.919L134.412 294.492C133.644 295.44 132.681 296.177 131.522 296.704C130.378 297.215 129.075 297.471 127.615 297.471Z" fill="white"/>
<path d="M143.432 297.471C141.099 297.471 139.277 296.832 137.967 295.553C136.658 294.274 136.003 292.46 136.003 290.113V281.355H140.474V289.977C140.474 291.332 140.737 292.302 141.264 292.889C141.806 293.476 142.544 293.769 143.477 293.769C144.411 293.769 145.141 293.476 145.668 292.889C146.195 292.302 146.458 291.332 146.458 289.977V281.355H150.861V290.113C150.861 292.46 150.206 294.274 148.897 295.553C147.587 296.832 145.765 297.471 143.432 297.471Z" fill="white"/>
<path d="M157.887 287.472H165.226V290.813H157.887V287.472ZM158.203 293.702H166.468V297.155H153.777V281.355H166.174V284.808H158.203V293.702Z" fill="white"/>
<path d="M168.836 297.155V281.355H173.307V293.611H180.849V297.155H168.836Z" fill="white"/>
<path d="M180.763 297.155L187.741 281.355H192.144L199.144 297.155H194.492L189.028 283.544H190.789L185.324 297.155H180.763ZM184.579 294.085L185.731 290.79H193.454L194.605 294.085H184.579Z" fill="white"/>
<path d="M206.757 297.155V281.355H214.232C215.978 281.355 217.513 281.678 218.838 282.325C220.163 282.973 221.194 283.883 221.932 285.057C222.685 286.23 223.061 287.63 223.061 289.255C223.061 290.865 222.685 292.265 221.932 293.453C221.194 294.627 220.163 295.538 218.838 296.185C217.513 296.832 215.978 297.155 214.232 297.155H206.757ZM211.228 293.589H214.051C214.954 293.589 215.737 293.423 216.399 293.092C217.077 292.746 217.604 292.25 217.98 291.603C218.356 290.94 218.545 290.158 218.545 289.255C218.545 288.337 218.356 287.555 217.98 286.908C217.604 286.261 217.077 285.771 216.399 285.44C215.737 285.094 214.954 284.921 214.051 284.921H211.228V293.589Z" fill="white"/>
<path d="M229.41 287.472H236.749V290.813H229.41V287.472ZM229.726 293.702H237.991V297.155H225.3V281.355H237.697V284.808H229.726V293.702Z" fill="white"/>
<path d="M254.698 297.471C253.449 297.471 252.29 297.276 251.221 296.884C250.167 296.478 249.249 295.906 248.466 295.169C247.698 294.432 247.096 293.566 246.66 292.573C246.223 291.565 246.005 290.459 246.005 289.255C246.005 288.051 246.223 286.953 246.66 285.96C247.096 284.951 247.698 284.079 248.466 283.341C249.249 282.604 250.167 282.04 251.221 281.648C252.29 281.242 253.449 281.039 254.698 281.039C256.159 281.039 257.461 281.295 258.605 281.806C259.764 282.318 260.728 283.055 261.495 284.018L258.65 286.592C258.138 285.99 257.574 285.531 256.957 285.215C256.354 284.899 255.677 284.741 254.924 284.741C254.277 284.741 253.682 284.846 253.14 285.057C252.598 285.267 252.132 285.576 251.74 285.982C251.364 286.373 251.063 286.847 250.837 287.404C250.626 287.961 250.521 288.578 250.521 289.255C250.521 289.932 250.626 290.549 250.837 291.106C251.063 291.663 251.364 292.144 251.74 292.551C252.132 292.942 252.598 293.243 253.14 293.453C253.682 293.664 254.277 293.769 254.924 293.769C255.677 293.769 256.354 293.611 256.957 293.295C257.574 292.979 258.138 292.52 258.65 291.919L261.495 294.492C260.728 295.44 259.764 296.177 258.605 296.704C257.461 297.215 256.159 297.471 254.698 297.471Z" fill="white"/>
<path d="M271.016 297.471C269.752 297.471 268.585 297.268 267.516 296.862C266.447 296.456 265.514 295.884 264.716 295.146C263.933 294.394 263.324 293.521 262.887 292.528C262.451 291.535 262.232 290.444 262.232 289.255C262.232 288.066 262.451 286.975 262.887 285.982C263.324 284.989 263.933 284.124 264.716 283.386C265.514 282.634 266.447 282.055 267.516 281.648C268.585 281.242 269.752 281.039 271.016 281.039C272.296 281.039 273.463 281.242 274.516 281.648C275.585 282.055 276.511 282.634 277.294 283.386C278.077 284.124 278.686 284.989 279.123 285.982C279.575 286.975 279.8 288.066 279.8 289.255C279.8 290.444 279.575 291.542 279.123 292.551C278.686 293.544 278.077 294.409 277.294 295.146C276.511 295.884 275.585 296.456 274.516 296.862C273.463 297.268 272.296 297.471 271.016 297.471ZM271.016 293.769C271.618 293.769 272.175 293.664 272.687 293.453C273.214 293.243 273.666 292.942 274.042 292.551C274.434 292.144 274.735 291.663 274.945 291.106C275.171 290.549 275.284 289.932 275.284 289.255C275.284 288.563 275.171 287.946 274.945 287.404C274.735 286.847 274.434 286.373 274.042 285.982C273.666 285.576 273.214 285.267 272.687 285.057C272.175 284.846 271.618 284.741 271.016 284.741C270.414 284.741 269.85 284.846 269.323 285.057C268.811 285.267 268.359 285.576 267.968 285.982C267.592 286.373 267.29 286.847 267.065 287.404C266.854 287.946 266.748 288.563 266.748 289.255C266.748 289.932 266.854 290.549 267.065 291.106C267.29 291.663 267.592 292.144 267.968 292.551C268.359 292.942 268.811 293.243 269.323 293.453C269.85 293.664 270.414 293.769 271.016 293.769Z" fill="white"/>
<path d="M289.91 297.471C288.661 297.471 287.501 297.276 286.433 296.884C285.379 296.478 284.46 295.906 283.678 295.169C282.91 294.432 282.308 293.566 281.871 292.573C281.435 291.565 281.216 290.459 281.216 289.255C281.216 288.051 281.435 286.953 281.871 285.96C282.308 284.951 282.91 284.079 283.678 283.341C284.46 282.604 285.379 282.04 286.433 281.648C287.501 281.242 288.661 281.039 289.91 281.039C291.37 281.039 292.672 281.295 293.817 281.806C294.976 282.318 295.939 283.055 296.707 284.018L293.862 286.592C293.35 285.99 292.785 285.531 292.168 285.215C291.566 284.899 290.889 284.741 290.136 284.741C289.488 284.741 288.894 284.846 288.352 285.057C287.81 285.267 287.343 285.576 286.952 285.982C286.576 286.373 286.274 286.847 286.049 287.404C285.838 287.961 285.733 288.578 285.733 289.255C285.733 289.932 285.838 290.549 286.049 291.106C286.274 291.663 286.576 292.144 286.952 292.551C287.343 292.942 287.81 293.243 288.352 293.453C288.894 293.664 289.488 293.769 290.136 293.769C290.889 293.769 291.566 293.611 292.168 293.295C292.785 292.979 293.35 292.52 293.862 291.919L296.707 294.492C295.939 295.44 294.976 296.177 293.817 296.704C292.672 297.215 291.37 297.471 289.91 297.471Z" fill="white"/>
<path d="M298.588 297.155V281.355H303.059V297.155H298.588Z" fill="white"/>
<path d="M306.127 297.155V281.355H309.807L318.524 291.873H316.785V281.355H321.166V297.155H317.485L308.769 286.637H310.507V297.155H306.127Z" fill="white"/>
<path d="M322.31 297.155L329.287 281.355H333.691L340.691 297.155H336.039L330.574 283.544H332.336L326.871 297.155H322.31ZM326.126 294.085L327.278 290.79H335L336.152 294.085H326.126Z" fill="white"/>
<path d="M346.407 297.155L353.385 281.355H357.788L364.788 297.155H360.136L354.672 283.544H356.433L350.969 297.155H346.407ZM350.223 294.085L351.375 290.79H359.098L360.249 294.085H350.223Z" fill="white"/>
<path d="M371.498 297.471C370.203 297.471 368.954 297.313 367.749 296.997C366.56 296.666 365.589 296.245 364.836 295.733L366.304 292.438C367.012 292.889 367.825 293.265 368.743 293.566C369.676 293.852 370.602 293.995 371.52 293.995C372.138 293.995 372.634 293.943 373.011 293.837C373.387 293.717 373.658 293.566 373.824 293.386C374.004 293.19 374.095 292.964 374.095 292.709C374.095 292.347 373.929 292.062 373.598 291.851C373.267 291.64 372.838 291.467 372.311 291.332C371.784 291.196 371.197 291.061 370.549 290.925C369.917 290.79 369.277 290.617 368.63 290.406C367.998 290.196 367.418 289.925 366.891 289.594C366.364 289.248 365.935 288.804 365.604 288.262C365.273 287.705 365.107 287.005 365.107 286.163C365.107 285.215 365.363 284.357 365.875 283.59C366.402 282.822 367.185 282.205 368.223 281.739C369.262 281.272 370.557 281.039 372.107 281.039C373.146 281.039 374.162 281.159 375.156 281.4C376.165 281.626 377.06 281.964 377.843 282.416L376.466 285.734C375.713 285.328 374.968 285.027 374.23 284.831C373.492 284.62 372.777 284.515 372.085 284.515C371.468 284.515 370.971 284.583 370.594 284.718C370.218 284.838 369.947 285.004 369.782 285.215C369.616 285.425 369.533 285.666 369.533 285.937C369.533 286.283 369.691 286.561 370.007 286.772C370.339 286.968 370.768 287.133 371.295 287.269C371.836 287.389 372.424 287.517 373.056 287.652C373.703 287.788 374.343 287.961 374.975 288.172C375.623 288.367 376.21 288.638 376.737 288.984C377.263 289.315 377.685 289.759 378.001 290.316C378.332 290.858 378.498 291.542 378.498 292.37C378.498 293.288 378.234 294.138 377.708 294.921C377.196 295.688 376.42 296.305 375.382 296.772C374.358 297.238 373.063 297.471 371.498 297.471Z" fill="white"/>
<path d="M380.45 297.155V281.355H384.921V297.155H380.45Z" fill="white"/>
<path d="M386.093 297.155L393.07 281.355H397.473L404.474 297.155H399.822L394.357 283.544H396.119L390.654 297.155H386.093ZM389.909 294.085L391.06 290.79H398.783L399.935 294.085H389.909ZM393.07 280.068L396.096 276.637H400.386L396.141 280.068H393.07Z" fill="white"/>
<path d="M408.199 297.155V284.899H403.344V281.355H417.502V284.899H412.67V297.155H408.199Z" fill="white"/>
<path d="M419.055 297.155V281.355H423.526V297.155H419.055Z" fill="white"/>
<path d="M434.475 297.471C433.226 297.471 432.066 297.276 430.998 296.884C429.944 296.478 429.026 295.906 428.243 295.169C427.475 294.432 426.873 293.566 426.436 292.573C426 291.565 425.781 290.459 425.781 289.255C425.781 288.051 426 286.953 426.436 285.96C426.873 284.951 427.475 284.079 428.243 283.341C429.026 282.604 429.944 282.04 430.998 281.648C432.066 281.242 433.226 281.039 434.475 281.039C435.935 281.039 437.238 281.295 438.382 281.806C439.541 282.318 440.504 283.055 441.272 284.018L438.427 286.592C437.915 285.99 437.35 285.531 436.733 285.215C436.131 284.899 435.454 284.741 434.701 284.741C434.054 284.741 433.459 284.846 432.917 285.057C432.375 285.267 431.908 285.576 431.517 285.982C431.141 286.373 430.84 286.847 430.614 287.404C430.403 287.961 430.298 288.578 430.298 289.255C430.298 289.932 430.403 290.549 430.614 291.106C430.84 291.663 431.141 292.144 431.517 292.551C431.908 292.942 432.375 293.243 432.917 293.453C433.459 293.664 434.054 293.769 434.701 293.769C435.454 293.769 436.131 293.611 436.733 293.295C437.35 292.979 437.915 292.52 438.427 291.919L441.272 294.492C440.504 295.44 439.541 296.177 438.382 296.704C437.238 297.215 435.935 297.471 434.475 297.471Z" fill="white"/>
<path d="M440.991 297.155L447.969 281.355H452.372L459.372 297.155H454.72L449.256 283.544H451.017L445.553 297.155H440.991ZM444.807 294.085L445.959 290.79H453.682L454.833 294.085H444.807Z" fill="white"/>
<path d="M70.6384 289.053C70.6384 287.135 72.1938 285.58 74.1124 285.58C76.0311 285.58 77.5864 287.135 77.5864 289.053C77.5864 290.97 76.0311 292.525 74.1124 292.525C72.1938 292.525 70.6384 290.97 70.6384 289.053Z" fill="white"/>
<path d="M286.167 263.261C279.577 259.968 276.868 255.338 277.568 248.567C277.91 245.308 280.458 239.561 281.737 239.167C282.027 239.075 282.652 239.845 283.133 240.869C283.845 242.403 284.377 242.767 286.103 242.912C289.554 243.201 290.081 242.183 290.081 235.197C290.081 227.951 291.152 224.571 295.164 219.171L297.862 215.536L298.291 218.847C298.824 222.979 299.663 224.611 303.705 229.369C307.265 233.565 308.302 235.62 308.91 239.706C309.379 242.837 309.813 243.288 311.868 242.773C312.957 242.501 313.773 241.448 315.117 238.577C316.906 234.751 316.906 234.746 317.936 236.019C319.969 238.525 321.347 243.427 321.341 248.115C321.329 255.523 318.417 260.072 311.399 263.626C308.817 264.934 308.504 264.992 308.898 264.06C309.535 262.55 309.969 256.64 309.558 255.008C309.367 254.256 308.169 252.456 306.895 251.003C305.621 249.556 303.925 247.073 303.126 245.487C302.332 243.902 301.296 242.287 300.827 241.899C299.582 240.863 297.666 241.72 297.237 243.502C296.629 246.02 294.799 249.296 292.686 251.634C289.421 255.246 288.65 258.973 290.341 263.013C291.412 265.571 290.856 265.605 286.167 263.261ZM460.597 256.137C453.423 254.267 446.307 249.07 441.936 242.513C439.956 239.532 429.342 218.61 424.583 208.302L422.58 203.961L420.831 205.987C419.864 207.098 417.542 209.934 415.661 212.289L412.25 216.561V233.877C412.25 253.266 412.134 253.909 408.4 255.471C405.175 256.82 387.232 256.71 384.458 255.327C380.231 253.214 380.376 254.817 380.544 212.156L380.695 174.05L382.003 172.997C382.721 172.412 385.031 171.382 387.139 170.699C391.169 169.397 399.64 165.322 407.167 161.057C409.622 159.668 411.77 158.528 411.943 158.528C412.111 158.528 412.25 162.695 412.25 167.788C412.25 172.881 412.447 177.048 412.684 177.048C412.922 177.042 414.306 175.549 415.759 173.72C417.212 171.891 420.993 167.14 424.166 163.158C427.333 159.176 431.485 153.874 433.384 151.368C437.883 145.43 439.793 143.862 447.488 139.787C451.014 137.918 454.911 135.528 456.15 134.463C459.19 131.864 461.101 127.384 460.748 123.692L460.475 120.908H472.472C483.676 120.908 484.568 120.983 485.975 122.089C487.949 123.645 488.493 126.574 487.272 129.097C486.334 131.036 478.112 141.772 462.907 160.906C448.745 178.738 446.411 181.812 446.411 182.662C446.411 183.461 455.832 201.299 463.619 215.247C469.352 225.508 470.741 226.597 477.365 225.977C484.197 225.335 485.633 226.649 487.144 234.925C488.847 244.232 488.933 246.628 487.648 249.151C486.137 252.109 485.025 253.058 480.845 254.979C477.776 256.391 476.601 256.588 470.44 256.727C466.103 256.826 462.403 256.606 460.597 256.137ZM95.5471 255.691C91.7199 254.169 91.0656 252.797 87.1458 238.01C85.3914 231.377 83.0464 222.568 81.9405 218.43C65.4216 156.56 58.4793 129.41 58.4793 126.672C58.4793 125.619 59.1162 124.259 60.17 123.09L61.8549 121.197L73.4408 121.018C90.7703 120.752 90.3419 120.37 94.7249 140.007C103.52 179.41 108.853 202.665 109.165 203.006C109.461 203.324 110.85 197.485 116.038 174.154C124.648 135.412 126.414 127.986 127.462 126.105C128.087 124.988 129.546 123.426 130.698 122.633C132.684 121.272 133.281 121.186 142.099 121.029C150.848 120.867 151.566 120.937 154.003 122.187C155.428 122.916 157.031 124.294 157.57 125.249C158.103 126.204 160.28 134.665 162.399 144.059C164.524 153.452 167.425 166.208 168.849 172.418C170.279 178.628 172.358 187.744 173.475 192.675C174.593 197.606 175.704 201.843 175.947 202.092C176.185 202.335 177.876 195.951 179.699 187.912C181.523 179.867 184.297 167.817 185.872 161.132C187.441 154.447 189.791 144.417 191.094 138.85C194.122 125.874 194.395 125.15 197.058 122.997L199.281 121.197L222.169 120.844L223.993 122.372C225.568 123.698 225.811 124.276 225.811 126.69C225.811 128.333 223.055 140.343 219.089 156.01C215.389 170.607 211.834 184.763 211.191 187.466C210.549 190.169 209.732 192.577 209.379 192.808C209.02 193.045 207.949 193.248 206.994 193.26C206.038 193.271 204.214 193.763 202.941 194.353C194.73 198.15 193.219 208.788 199.976 215.218C201.221 216.399 202.072 217.759 202.072 218.563C202.072 220.421 195.35 247.733 194.238 250.395C192.009 255.732 190.232 256.339 176.938 256.339C160.847 256.339 160.471 256.015 156.342 238.687C151.131 216.833 149.221 208.701 146.968 198.752C142.933 180.932 142.591 179.63 142.238 180.521C141.862 181.458 138.665 194.996 134.589 212.932C130.235 232.095 126.634 247.253 125.91 249.446C124.949 252.357 122.778 254.771 120.247 255.726C118.192 256.501 97.5099 256.478 95.5471 255.691ZM269.236 251.611C264.141 250.887 254.831 247.71 248.601 244.567C241.19 240.834 234.89 235.868 227.149 227.661C220.461 220.566 220.235 220.392 213.38 217.024C204.214 212.509 201.493 209.905 201.493 205.634C201.493 199.14 209.142 197.189 218.753 201.229L222.98 203.006L228.307 199.528C235.313 194.95 253.435 186.094 264.315 181.933C279.369 176.18 299.003 169.906 308.609 167.788L311.793 167.082L319.61 151.768C329.69 132.014 331.201 129.589 333.425 129.589C335.938 129.589 337.796 131.355 337.761 133.71C337.733 135.632 335.862 139.041 324.612 157.66C322.499 161.161 320.768 164.24 320.768 164.501C320.768 164.761 321.486 164.888 322.36 164.79C323.622 164.64 325.07 163.146 329.453 157.451C343.505 139.174 344.038 138.578 346.331 138.387C348.739 138.184 350.297 139.729 350.297 142.322C350.297 144.122 349.567 145.222 343.939 151.872C341.513 154.737 338.561 158.285 337.379 159.755L335.225 162.434L345.509 162.174C355.491 161.919 358.467 162.243 362.595 164.003C363.353 164.327 364.575 163.499 367.516 160.687C369.67 158.62 372.258 156.514 373.272 155.999C374.401 155.426 375.744 153.915 376.746 152.092C378.176 149.487 379.201 148.602 385.037 144.956C388.702 142.67 394.562 139.156 398.065 137.148C407.259 131.876 420.246 124.224 427.594 119.745C440.708 111.746 442.069 111.069 445.01 111.069C447.471 111.069 447.981 111.312 450.053 113.494C452.943 116.527 455.096 121.301 455.096 124.664C455.096 128.872 453.435 130.186 437.616 138.531C429.875 142.612 420.02 147.844 415.724 150.147C393.711 161.96 386.34 165.473 383.584 165.473C380.011 165.473 379.16 166.017 376.149 170.254C372.27 175.711 368.622 183.363 365.449 192.675C361.79 203.428 360.539 206.525 357.969 211.172C354.917 216.694 350.453 222.406 344.93 227.87C339.365 233.38 335.776 236.083 329.03 239.862C324.473 242.414 323.084 242.692 323.084 241.06C323.084 239.445 319.442 233.16 317.537 231.487C315.012 229.276 314.399 229.265 314.399 231.429C314.399 233.681 312.146 239.665 311.457 239.237C311.168 239.057 310.919 238.207 310.913 237.35C310.89 234.919 309.031 231.476 305.702 227.708C301.944 223.442 301.064 221.417 300.653 216.005C300.479 213.678 300.121 211.774 299.86 211.774C299.599 211.774 297.683 213.366 295.598 215.316C292.831 217.903 291.233 220.028 289.658 223.217C287.655 227.274 287.481 228.026 287.197 234.149C287.029 237.871 286.647 240.759 286.317 240.799C285.396 240.915 284.308 238.305 284.296 235.973C284.291 233.166 283.619 232.865 281.685 234.792C277.395 239.069 275.026 244.185 275.026 249.18C275.026 252.682 275.467 252.496 269.236 251.611ZM249.186 214.963C275.663 211.444 307.057 202.144 332.446 190.308C349.145 182.518 361.362 174.201 362.711 169.698C363.261 167.869 361.431 166.301 357.859 165.537C354.408 164.796 343.378 164.744 336.795 165.432C331.456 165.988 333.61 163.933 317.323 184.057C310.988 191.894 305.366 198.468 304.839 198.671C301.823 199.829 297.608 198.324 297.608 196.09C297.608 195.453 300.375 189.596 303.751 183.067C307.132 176.539 309.744 171.046 309.558 170.861C309.176 170.479 307.428 170.919 294.713 174.577C257.153 185.383 221.179 203.243 221.179 211.074C221.179 214.518 224.827 215.646 236.233 215.745C239.898 215.779 245.723 215.426 249.186 214.963ZM320.75 168.801C320.785 167.857 319.031 168.442 318.156 169.669C316.535 171.949 312.1 179.63 312.094 180.185C312.089 180.48 314.028 178.136 316.408 174.976C318.793 171.816 320.745 169.038 320.75 168.801ZM355.861 146.536C356.388 140.858 355.907 139.029 352.509 133.832C347.935 126.846 346.834 124.114 346.834 119.75C346.834 116.966 347.193 115.236 348.224 113.095C349.718 109.992 352.995 105.825 352.341 107.857C350.639 113.164 351.507 116.804 356.127 123.767C360.383 130.18 361.304 132.651 361.286 137.623C361.269 141.9 360.221 144.736 357.309 148.353L355.485 150.616L355.861 146.536ZM380.758 136.824C380.208 131.453 380.897 125.804 382.322 123.993C384.394 121.365 386.502 120.908 396.617 120.908C403.432 120.908 406.454 121.134 407.925 121.747C409.031 122.21 409.934 122.731 409.934 122.91C409.934 123.414 382.2 140.586 381.378 140.586C381.25 140.586 380.972 138.896 380.758 136.824Z" fill="white"/>
</svg>
